# xmcd CD database file
#
# Track frame offsets:
#	182
#	31187
#	57600
#	89780
#	109525
#	128410
#	160512
#	192995
#	216365
#
# Disc length: 3369 seconds
#
# Revision: 3
# Processed by: cddbd v1.5.2PL0 Copyright (c) Steve Scherf et al.
# Submitted via: CDex 1.51
#
DISCID=770d2709
DTITLE=Jerry Bergonzi - Standard Gonz
DYEAR=1991
DGENRE=Jazz
TTITLE0=If I Were a Bell
TTITLE1=Come Rain or Come Shine
TTITLE2=McCoy
TTITLE3=Just Friends
TTITLE4=Jab
TTITLE5=Arbonius Unt
TTITLE6=Here's That Rainy Day
TTITLE7=Night and Day
TTITLE8=Conjunction
EXTD=YEAR: 1991
EXTT0=
EXTT1=
EXTT2=
EXTT3=
EXTT4=
EXTT5=
EXTT6=
EXTT7=
EXTT8=
PLAYORDER=
